<svg width="270" height="384" viewBox="0 0 270 384" fill="none" xmlns="http://www.w3.org/2000/svg">
<path d="M269.322 152.613C269.322 219.402 231.468 276.168 178.747 296.858C157.525 305.139 134.821 307.318 112.673 303.199C110.571 302.81 108.484 302.363 106.412 301.858C103.605 301.183 100.83 300.405 98.089 299.527C41.4866 281.472 0 222.533 0 152.613C0 68.3267 60.2894 0 134.661 0C209.033 0 269.322 68.3267 269.322 152.613Z" fill="#E6E6E6"/>
<path d="M50.3181 199.716C50.0811 199.86 49.904 200.105 49.8258 200.396C49.7477 200.688 49.7748 201.003 49.9012 201.272L100.53 308.742C100.657 309.011 100.873 309.212 101.13 309.3C101.387 309.389 101.665 309.358 101.902 309.215L173.471 265.91C173.709 265.767 173.886 265.522 173.964 265.231C174.042 264.939 174.015 264.624 173.888 264.355L123.259 156.884C123.133 156.616 122.917 156.415 122.66 156.327C122.402 156.238 122.124 156.269 121.887 156.412L50.3181 199.716Z" fill="#3F3D56"/>
<path d="M56.9706 202.857L103.301 301.202L166.819 262.77L120.488 164.424L56.9706 202.857ZM52.9459 205.292L52.9547 205.287L52.9448 205.292L52.9459 205.292Z" fill="white"/>
<path d="M72.9858 213.669C71.999 214.266 71.789 216.009 72.5167 217.554C73.2445 219.098 74.6393 219.87 75.6261 219.273L122.146 191.125C123.133 190.528 123.343 188.785 122.615 187.24C121.887 185.696 120.492 184.924 119.506 185.521L72.9858 213.669Z" fill="#6C63FF"/>
<path d="M78.7173 225.835C77.7305 226.432 77.5204 228.175 78.2482 229.72C78.976 231.265 80.3707 232.037 81.3575 231.44L127.877 203.292C128.864 202.695 129.074 200.952 128.346 199.407C127.619 197.862 126.224 197.09 125.237 197.687L78.7173 225.835Z" fill="#6C63FF"/>
<path d="M84.4489 238.002C83.4622 238.599 83.2521 240.342 83.9799 241.887C84.7077 243.431 86.1024 244.203 87.0892 243.606L133.609 215.458C134.596 214.861 134.806 213.118 134.078 211.573C133.35 210.029 131.956 209.257 130.969 209.854L84.4489 238.002Z" fill="#6C63FF"/>
<path d="M90.1804 250.168C89.1936 250.765 88.9835 252.508 89.7113 254.053C90.4391 255.598 91.8339 256.37 92.8207 255.773L139.341 227.625C140.327 227.028 140.537 225.285 139.81 223.74C139.082 222.195 137.687 221.423 136.7 222.02L90.1804 250.168Z" fill="#6C63FF"/>
<path d="M95.9121 262.334C94.9253 262.931 94.7152 264.674 95.443 266.219C96.1708 267.764 97.5656 268.536 98.5524 267.939L145.072 239.791C146.059 239.194 146.269 237.451 145.541 235.906C144.814 234.361 143.419 233.589 142.432 234.186L95.9121 262.334Z" fill="#6C63FF"/>
<path d="M104.946 153.285L147.098 156.202L158.903 116.304L121.931 107.451L104.946 153.285Z" fill="#2F2E41"/>
<path d="M135.346 143.196C144.657 143.196 152.205 134.642 152.205 124.09C152.205 113.538 144.657 104.984 135.346 104.984C126.035 104.984 118.487 113.538 118.487 124.09C118.487 134.642 126.035 143.196 135.346 143.196Z" fill="#FFB8B8"/>
<path d="M178.637 295.371L178.747 296.858C157.525 305.139 134.821 307.318 112.673 303.199L106.412 301.859L112.37 286.885L116.276 277.069L114.869 243.111L114.72 239.597L114.536 235.115L117.081 235.098L135.168 234.974L152.406 234.85L155.034 234.833C171.517 257.809 185.117 276.483 178.637 295.371Z" fill="#2F2E41"/>
<path d="M154.786 234.551L114.537 239.619L113.046 208.083C108.322 194.43 111.44 182.243 121.244 171.308L123.237 162.367C123.76 160.02 124.84 157.881 126.362 156.182C127.883 154.483 129.786 153.289 131.864 152.731C138.452 148.448 145.915 146.407 154.289 146.7C157.633 148.18 160.469 150.84 162.377 154.286C164.285 157.732 165.164 161.783 164.885 165.839C163.153 190.623 160.044 213.823 154.786 234.551Z" fill="#6C63FF"/>
<path d="M122.593 101.516C122.593 101.516 113.876 105.122 113.652 118.229C113.639 120.434 113.899 122.631 114.424 124.755C114.989 127.164 115.442 132.391 111.641 139.358C109.158 143.88 106.912 148.565 104.917 153.388L114.732 154.462L116.355 136.021C117.142 127.081 119.086 118.321 122.125 110.023L122.188 109.849C122.188 109.849 126.691 118.719 135.249 118.446L132.107 115.08C132.107 115.08 142.826 119.654 148.655 120.573C149.32 120.678 149.947 120.987 150.469 121.466C150.991 121.945 151.388 122.576 151.616 123.292C151.845 124.008 151.897 124.78 151.767 125.527C151.637 126.274 151.329 126.966 150.878 127.53C150.844 127.572 150.809 127.615 150.773 127.657C147.208 131.931 140.114 141.864 144.582 149.349C149.051 156.833 145.435 159.028 145.435 159.028L152.056 154.657L155.061 152.481L155.13 155.252L170.972 152.666C170.972 152.666 175.234 151.837 165.771 140.352C165.771 140.352 163.236 135.856 164.198 131.877C164.994 128.852 165.143 125.655 164.634 122.551C162.257 109.628 153.555 84.0646 122.593 101.516Z" fill="#2F2E41"/>
<path d="M134.661 383.592C168.142 383.592 195.284 381.827 195.284 379.65C195.284 377.473 168.142 375.708 134.661 375.708C101.18 375.708 74.0388 377.473 74.0388 379.65C74.0388 381.827 101.18 383.592 134.661 383.592Z" fill="#E6E6E6"/>
<path d="M126.462 181.052L125.946 184.678L120.499 222.725L117.081 235.097L115.878 239.45L114.87 243.111L102.611 287.487L99.2473 296.442C97.4019 297.216 95.8159 298.624 94.7112 300.469C93.6064 302.314 93.0381 304.505 93.0858 306.734C93.1334 308.963 93.7947 311.12 94.977 312.902C96.1593 314.685 97.8036 316.004 99.68 316.675C101.556 317.347 103.571 317.337 105.442 316.647C107.313 315.957 108.947 314.621 110.116 312.827C111.284 311.033 111.929 308.87 111.959 306.64C111.989 304.411 111.404 302.226 110.285 300.392L134.279 237.136L135.168 234.973L137.891 228.356L143.034 184.38L143.357 181.615L126.462 181.052Z" fill="#FFB8B8"/>
<path d="M145.396 186.798C137.586 183.617 130.095 183.279 123.035 186.798L125.339 164.162C125.255 161.335 126.152 158.584 127.839 156.499C129.526 154.415 131.867 153.164 134.359 153.015C136.882 152.864 139.355 153.856 141.232 155.771C143.11 157.687 144.24 160.369 144.373 163.229L144.374 163.266L145.396 186.798Z" fill="#6C63FF"/>
</svg>
